<svg width="28" height="30" viewBox="0 0 28 30" fill="none" xmlns="http://www.w3.org/2000/svg">
<g filter="url(#filter0_d_1_1729)">
<path d="M14.0002 2C11.6757 2.00824 9.42667 2.82602 7.63977 4.31277C5.85286 5.79952 4.63972 7.86234 4.20891 10.1466C3.77809 12.4309 4.15652 14.7939 5.27913 16.8293C6.40174 18.8648 8.1984 20.4456 10.3602 21.3C10.2602 20.51 10.1902 19.3 10.3902 18.43L11.5602 13.46C11.5602 13.46 11.2602 12.86 11.2602 11.98C11.2602 10.59 12.0702 9.56 13.0802 9.56C13.9302 9.56 14.3502 10.2 14.3502 10.96C14.3502 11.82 13.8002 13.1 13.5102 14.29C13.2702 15.29 14.0102 16.1 15.0002 16.1C16.7802 16.1 18.1402 14.23 18.1402 11.53C18.1402 9.13 16.4202 7.47 13.9602 7.47C13.3758 7.44433 12.7923 7.53734 12.2448 7.74342C11.6973 7.94951 11.1973 8.26438 10.7749 8.66904C10.3525 9.07371 10.0164 9.55977 9.78702 10.0979C9.55763 10.636 9.43966 11.215 9.44023 11.8C9.44023 12.66 9.77023 13.58 10.1802 14.08C10.2602 14.18 10.2702 14.27 10.2402 14.37L9.96023 15.5C9.92023 15.68 9.81023 15.73 9.63023 15.64C8.37023 15.05 7.59023 13.24 7.59023 11.76C7.59023 8.61 9.89023 5.72 14.2102 5.72C17.6702 5.72 20.3802 8.18 20.3802 11.49C20.3802 14.94 18.2002 17.71 15.1802 17.71C14.1802 17.71 13.2202 17.18 12.9002 16.56L12.2702 18.93C11.9751 19.8577 11.5581 20.7421 11.0302 21.56C12.4041 21.9816 13.8526 22.1021 15.2772 21.9133C16.7018 21.7245 18.069 21.2309 19.2856 20.4661C20.5023 19.7014 21.5398 18.6833 22.3275 17.4814C23.1152 16.2795 23.6346 14.9219 23.8504 13.5011C24.0661 12.0804 23.9731 10.6298 23.5776 9.24822C23.1822 7.86664 22.4936 6.58652 21.5588 5.49506C20.6241 4.40359 19.465 3.52642 18.1607 2.9233C16.8563 2.32017 15.4373 2.00525 14.0002 2Z" fill="white"/>
</g>
<defs>
<filter id="filter0_d_1_1729" x="-2" y="0" width="32" height="32" filterUnits="userSpaceOnUse" color-interpolation-filters="sRGB">
<feFlood flood-opacity="0" result="BackgroundImageFix"/>
<feColorMatrix in="SourceAlpha" type="matrix" values="0 0 0 0 0 0 0 0 0 0 0 0 0 0 0 0 0 0 127 0" result="hardAlpha"/>
<feOffset dy="4"/>
<feGaussianBlur stdDeviation="2"/>
<feComposite in2="hardAlpha" operator="out"/>
<feColorMatrix type="matrix" values="0 0 0 0 0 0 0 0 0 0 0 0 0 0 0 0 0 0 0.25 0"/>
<feBlend mode="normal" in2="BackgroundImageFix" result="effect1_dropShadow_1_1729"/>
<feBlend mode="normal" in="SourceGraphic" in2="effect1_dropShadow_1_1729" result="shape"/>
</filter>
</defs>
</svg>
